<svg xmlns="http://www.w3.org/2000/svg" viewBox="0 0 64 64" fill="none" stroke-linecap="round" stroke-linejoin="round">
  <rect x="4" y="4" width="56" height="56" rx="14" fill="#fffefb" stroke="none"/><path d="M23 14 C17 14 14 19 14 26 C14 31 17 35 21 36 V48 C21 51 25 51 25 48 V36 C29 35 32 31 32 26 C32 19 29 14 23 14Z" fill="#FFC94A" stroke="none"/><path d="M39 14 v16 M47 14 v16 M55 14 v16 M39 30 q8 7 16 0 V14 M47 30 v18 q0 4-4 4 q-4 0-4-4 V30" fill="none" stroke="#FF7A3D" stroke-width="4"/><path d="M18 19 q3-5 8-3" stroke="#FFF2B8" stroke-width="3"/>
</svg>
