<svg xmlns="http://www.w3.org/2000/svg" width="256" height="256" viewBox="0 0 256 256" role="img" aria-label="tangerine">
  <circle cx="128" cy="128" r="104" fill="#fffdf8" stroke="#2f1d16" stroke-width="7"/>
  <g stroke="#2f1d16" stroke-width="6" stroke-linecap="round" stroke-linejoin="round">

    <path d="M121 85c5-15 18-24 32-23 0 15-9 27-26 31" fill="#8fb766"/>
    <path d="M80 131c0-31 25-54 54-48 24 5 44 26 44 53 0 33-25 54-51 54-28 0-47-24-47-59z" fill="#f5a24a"/>
    <path d="M103 111c13 10 25 12 45 0M100 151c16 12 38 14 57-1" fill="none" stroke="#e37f36"/>

  </g>
</svg>
