<svg xmlns="http://www.w3.org/2000/svg" viewBox="0 0 512 512" role="img" aria-label="도밥도밥 앱 아이콘">
  <defs>
    <linearGradient id="bg" x1="92" y1="52" x2="420" y2="460" gradientUnits="userSpaceOnUse">
      <stop stop-color="#FFF7CF"/>
      <stop offset="1" stop-color="#FBE7A6"/>
    </linearGradient>
    <filter id="softShadow" x="-20%" y="-20%" width="140%" height="140%">
      <feDropShadow dx="0" dy="14" stdDeviation="16" flood-color="#8D6E2F" flood-opacity="0.16"/>
    </filter>
  </defs>
  <rect width="512" height="512" rx="112" fill="url(#bg)"/>
  <path d="M128 146c0-18 14-32 32-32h192c18 0 32 14 32 32v162c0 18-14 32-32 32H160c-18 0-32-14-32-32V146z" fill="#FFFDF7" opacity=".48"/>
  <g filter="url(#softShadow)">
    <path d="M137 277c5 72 56 118 119 118s114-46 119-118H137z" fill="#FFFDF9"/>
    <path d="M137 277h238c-6 38-55 68-119 68s-113-30-119-68z" fill="#F7F0E7"/>
    <path d="M133 274c0-21 55-38 123-38s123 17 123 38-55 38-123 38-123-17-123-38z" fill="#FFFFFF" stroke="#5E554B" stroke-width="14"/>
    <path d="M162 282c24 25 58 38 94 38s70-13 94-38" fill="none" stroke="#5E554B" stroke-width="13" stroke-linecap="round"/>
    <path d="M196 232c12-31 34-52 61-52s48 21 59 52c-18-7-39-11-60-11s-42 4-60 11z" fill="#FFFFFF"/>
  </g>
  <g transform="rotate(5 352 158)">
    <rect x="314" y="112" width="92" height="92" rx="15" fill="#FFFDF9" stroke="#E8D8CE" stroke-width="5"/>
    <rect x="334" y="99" width="52" height="18" rx="5" fill="#F7D9CC" opacity=".82"/>
    <path d="M336 144h48M336 164h36" stroke="#9A9187" stroke-width="8" stroke-linecap="round"/>
  </g>
</svg>
